<svg width="26" height="46" viewBox="0 0 26 46" fill="none" xmlns="http://www.w3.org/2000/svg">
<path d="M13.0565 0C6.2154 0 0.649902 6.06972 0.649902 13.5306V32.4694C0.649902 39.9303 6.2154 46 13.0565 46C19.8976 46 25.4631 39.9303 25.4631 32.4694V13.5306C25.4631 6.06972 19.8976 0 13.0565 0ZM22.9325 32.4694C22.9325 38.4082 18.502 43.2401 13.0565 43.2401C7.61103 43.2401 3.18052 38.4082 3.18052 32.4694V13.5306C3.18052 7.5918 7.61103 2.75989 13.0565 2.75989C18.502 2.75989 22.9325 7.5918 22.9325 13.5306V32.4694Z" fill="white"/>
<path d="M13.0568 9.15076C12.3579 9.15076 11.7915 9.76843 11.7915 10.5307V16.8822C11.7915 17.6442 12.3579 18.2622 13.0568 18.2622C13.7554 18.2622 14.3221 17.6442 14.3221 16.8822V10.5307C14.3221 9.76843 13.7558 9.15076 13.0568 9.15076Z" fill="white"/>
</svg>
